<?xml version="1.0" encoding="UTF-8"?>
<svg version="1.1" xmlns="http://www.w3.org/2000/svg" width="351" height="313">
<path d="M0 0 C115.83 0 231.66 0 351 0 C351 103.29 351 206.58 351 313 C235.17 313 119.34 313 0 313 C0 209.71 0 106.42 0 0 Z " fill="#1D1E33" transform="translate(0,0)"/>
<path d="M0 0 C1.93527142 0.95454667 3.8329214 1.98709091 5.69921875 3.0703125 C6.81248535 3.71170166 7.92575195 4.35309082 9.07275391 5.01391602 C10.27773761 5.71749364 11.48265113 6.4211915 12.6875 7.125 C13.94411816 7.85213915 15.20112306 8.57861033 16.45849609 9.30444336 C19.04627864 10.7996765 21.63175689 12.2987785 24.21533203 13.80126953 C28.78168906 16.456189 33.35964117 19.09086916 37.93725586 21.72631836 C41.14721667 23.57529709 44.35515214 25.42774285 47.5625 27.28125 C51.89408507 29.7842949 56.22744603 32.28421773 60.5625 34.78125 C72.39637304 41.59905778 84.21601601 48.43966276 95.99853516 55.34594727 C97.3779126 56.15310181 97.3779126 56.15310181 98.78515625 56.9765625 C99.57801025 57.44143066 100.37086426 57.90629883 101.18774414 58.38525391 C105.10125897 60.63232284 109.05514631 62.80841462 113 65 C113 84.8 113 104.6 113 125 C104.75 129.62 96.5 134.24 88 139 C79.10874034 144.17277732 79.10874034 144.17277732 70.23046875 149.3671875 C63.51538981 153.294774 56.75948481 157.14962689 50 161 C41.01394354 166.11966976 32.05390737 171.2810356 23.125 176.5 C22.13846436 177.07435791 21.15192871 177.64871582 20.13549805 178.24047852 C15.92911158 180.69106861 11.73271306 183.15246135 7.57421875 185.68359375 C6.92630371 186.07160156 6.27838867 186.45960938 5.61083984 186.859375 C3.97024141 187.84293225 2.33815493 188.84065226 0.70703125 189.83984375 C-2.54388692 191.23309439 -3.64658927 190.93896744 -7 190 C-9.3581543 188.83935547 -9.3581543 188.83935547 -11.82421875 187.3671875 C-12.75669434 186.81619385 -13.68916992 186.2652002 -14.64990234 185.69750977 C-15.65230957 185.09608154 -16.6547168 184.49465332 -17.6875 183.875 C-19.86025981 182.58913841 -22.03345157 181.30400648 -24.20703125 180.01953125 C-25.32932129 179.3538916 -26.45161133 178.68825195 -27.60791016 178.00244141 C-33.00694148 174.81524874 -38.4405284 171.68875325 -43.875 168.5625 C-46.05994368 167.30346844 -48.24483925 166.04435339 -50.4296875 164.78515625 C-52.05729004 163.84760498 -52.05729004 163.84760498 -53.71777344 162.89111328 C-60.21847963 159.14561565 -66.71625032 155.39502735 -73.21435547 151.64501953 C-78.23653702 148.74705111 -83.25927066 145.85005713 -88.28442383 142.95724487 C-90.05045522 141.94052802 -91.81627431 140.92344342 -93.58203125 139.90625 C-95.78734155 138.63599127 -97.99304216 137.36640982 -100.19921875 136.09765625 C-102.19848001 134.94571314 -104.18567123 133.77250373 -106.15869141 132.57617188 C-108.94209022 130.92420745 -108.94209022 130.92420745 -111.94677734 129.98632812 C-115.24506532 128.69288186 -116.84033347 127.83991015 -119 125 C-120.68837347 118.07517789 -119.93140547 110.6769507 -119.625 103.625 C-119.57481713 101.62901683 -119.52919359 99.63291346 -119.48828125 97.63671875 C-119.37829061 92.75484232 -119.20589388 87.87873459 -119 83 C-114.89102713 84.2576107 -111.34593014 85.77976192 -107.640625 87.94921875 C-106.62097656 88.5421875 -105.60132812 89.13515625 -104.55078125 89.74609375 C-103.46152344 90.38675781 -102.37226562 91.02742188 -101.25 91.6875 C-100.09279028 92.36256639 -98.93523143 93.03703462 -97.77734375 93.7109375 C-95.37429418 95.11015805 -92.9727608 96.51192935 -90.57226562 97.91552734 C-85.06213188 101.13449365 -79.52992383 104.31519845 -74 107.5 C-71.83323021 108.74982124 -69.66656385 109.9998218 -67.5 111.25 C-66.4275 111.86875 -65.355 112.4875 -64.25 113.125 C-54.5 118.75 -54.5 118.75 -51.24511719 120.62792969 C-49.09485681 121.86838986 -46.94446776 123.10862703 -44.79394531 124.34863281 C-39.73102491 127.26830662 -34.66941668 130.19018475 -29.61242676 133.12011719 C-27.23187827 134.49918031 -24.85058694 135.87695785 -22.46923828 137.25463867 C-20.7951735 138.22384658 -19.12218088 139.19490565 -17.44921875 140.16601562 C-15.91974609 141.05063477 -15.91974609 141.05063477 -14.359375 141.953125 C-13.46702148 142.47036133 -12.57466797 142.98759766 -11.65527344 143.52050781 C-10.7790332 144.00874023 -9.90279297 144.49697266 -9 145 C-8.01201416 145.6077124 -7.02402832 146.2154248 -6.00610352 146.84155273 C-3.07736473 148.31862788 -3.07736473 148.31862788 -0.29370117 147.21411133 C0.61404053 146.6755249 1.52178223 146.13693848 2.45703125 145.58203125 C3.47788818 144.99236572 4.49874512 144.4027002 5.55053711 143.79516602 C6.62698486 143.14088623 7.70343262 142.48660645 8.8125 141.8125 C9.93470947 141.15628662 11.05691895 140.50007324 12.21313477 139.82397461 C15.48840898 137.90362987 18.74500566 135.95445671 22 134 C23.50099997 133.11705884 25.00337188 132.2364408 26.5078125 131.359375 C29.16269572 129.81009766 31.81021135 128.24929191 34.453125 126.6796875 C41.27071919 122.64434171 48.15264027 118.71910594 55.02124023 114.77148438 C60.53148594 111.5985641 66.02570196 108.40284631 71.48828125 105.1484375 C72.50253174 104.54427002 73.51678223 103.94010254 74.56176758 103.31762695 C76.48454447 102.16907331 78.40505364 101.01671266 80.32299805 99.86010742 C81.17547119 99.35068604 82.02794434 98.84126465 82.90625 98.31640625 C83.65197266 97.86724854 84.39769531 97.41809082 85.16601562 96.95532227 C87 96 87 96 89 96 C86.50615208 93.20436225 83.74784919 91.56746596 80.49609375 89.734375 C78.81652588 88.78195923 78.81652588 88.78195923 77.10302734 87.81030273 C76.20834747 87.3074324 76.20834747 87.3074324 75.29559326 86.79440308 C72.76158447 85.37007921 70.23366239 83.93510114 67.7052002 82.5009613 C66.39750414 81.75946655 65.08947639 81.01855649 63.78112793 80.2782135 C57.45870435 76.69987146 51.16425348 73.07379869 44.875 69.4375 C42.72656553 68.19660933 40.57812803 66.95572392 38.4296875 65.71484375 C37.36975586 65.10237793 36.30982422 64.48991211 35.21777344 63.85888672 C30.89695545 61.36277836 26.57463478 58.8692791 22.25219727 56.37597656 C20.09112994 55.12940038 17.93015924 53.88265669 15.76928711 52.63574219 C10.24202088 49.44630888 4.71369139 46.25874051 -0.81640625 43.07421875 C-6.23776945 39.95202482 -11.65531554 36.82329464 -17.07080078 33.69091797 C-19.82375124 32.10174187 -22.5813302 30.52089872 -25.33984375 28.94140625 C-26.89343973 28.04463552 -28.44684087 27.14752712 -30 26.25 C-31.04136108 25.65868286 -31.04136108 25.65868286 -32.10375977 25.05541992 C-35.22144787 23.2430906 -36.96425541 22.05361688 -39 19 C-34.6954919 16.28472587 -30.35638635 13.63086003 -26 11 C-25.14325684 10.48099121 -24.28651367 9.96198242 -23.40380859 9.42724609 C-20.61227841 7.74700797 -17.8079523 6.09012352 -15 4.4375 C-14.0922583 3.88868164 -13.1845166 3.33986328 -12.24926758 2.77441406 C-11.38325928 2.27006836 -10.51725098 1.76572266 -9.625 1.24609375 C-8.85414063 0.78904053 -8.08328125 0.3319873 -7.2890625 -0.13891602 C-4.3462667 -1.24591695 -2.97771952 -0.96538715 0 0 Z " fill="#0065FD" transform="translate(177,107)"/>
<path d="M0 0 C2.48168945 1.17651367 2.48168945 1.17651367 5.11328125 2.66796875 C6.10126709 3.22411865 7.08925293 3.78026855 8.10717773 4.35327148 C9.16493408 4.95856689 10.22269043 5.5638623 11.3125 6.1875 C12.42117432 6.815354 13.52984863 7.44320801 14.67211914 8.09008789 C24.12965658 13.46193699 33.52701651 18.93695979 42.91015625 24.4375 C49.2157044 28.13213322 55.54295812 31.7885026 61.875 35.4375 C63.48000366 36.36260376 63.48000366 36.36260376 65.11743164 37.30639648 C67.29693578 38.56235147 69.47654264 39.81812821 71.65625 41.07373047 C76.26777425 43.73034016 80.8785214 46.38829557 85.48876953 49.04711914 C87.66664882 50.30312898 89.84469506 51.55884939 92.02294922 52.81420898 C94.02585757 53.96921194 96.01671889 55.14539194 97.99414062 56.34350586 C100.98855063 58.0968346 100.98855063 58.0968346 104.39648438 59.22094727 C108.17961692 60.75666054 110.33298083 61.88196165 113 65 C115.00270097 72.04862031 114.1192399 79.71351873 113.75 86.9375 C113.68977016 88.97705741 113.63502363 91.0167846 113.5859375 93.05664062 C113.45403768 98.04196254 113.24725297 103.01912066 113 108 C105.73662091 104.05959283 98.50576644 100.06697439 91.3125 96 C90.32338623 95.44094971 89.33427246 94.88189941 88.31518555 94.3059082 C80.2819667 89.7525052 72.30257799 85.11075684 64.33520508 80.44335938 C56.58644107 75.90968717 48.80033107 71.4440325 41 67 C6.0897261 47.10710258 6.0897261 47.10710258 0.45288086 43.26293945 C-1.83590572 41.81662565 -1.83590572 41.81662565 -3.98364258 42.13696289 C-6.50892976 43.21783106 -8.86777239 44.45901883 -11.26171875 45.80859375 C-12.289021 46.38536865 -13.31632324 46.96214355 -14.37475586 47.55639648 C-15.46796143 48.17716064 -16.56116699 48.7979248 -17.6875 49.4375 C-18.81873291 50.0756665 -19.94996582 50.71383301 -21.11547852 51.37133789 C-27.91636559 55.21864156 -34.68342868 59.11810848 -41.40405273 63.10375977 C-47.82416869 66.91045858 -54.28436087 70.64622854 -60.75 74.375 C-61.8519873 75.01131348 -62.95397461 75.64762695 -64.08935547 76.30322266 C-69.48016229 79.41181318 -74.8795515 82.50333318 -80.30078125 85.55859375 C-81.27499023 86.10918457 -82.24919922 86.65977539 -83.25292969 87.22705078 C-85.08817145 88.26268339 -86.92596352 89.29381309 -88.76660156 90.31982422 C-89.98234863 91.0064917 -89.98234863 91.0064917 -91.22265625 91.70703125 C-92.28625366 92.30221558 -92.28625366 92.30221558 -93.37133789 92.90942383 C-95.16356943 93.91516532 -95.16356943 93.91516532 -96 96 C-95.23171875 96.20238281 -94.4634375 96.40476562 -93.671875 96.61328125 C-88.51040836 98.56255854 -83.97907448 101.36607698 -79.25 104.1875 C-77.08632451 105.46419778 -74.92224834 106.74021671 -72.7578125 108.015625 C-71.64180664 108.67498047 -70.52580078 109.33433594 -69.37597656 110.01367188 C-63.9787367 113.18925356 -58.55236 116.3137656 -53.125 119.4375 C-50.94008624 120.69658348 -48.75519051 121.95569823 -46.5703125 123.21484375 C-44.94270996 124.15239502 -44.94270996 124.15239502 -43.28222656 125.10888672 C-37.85340055 128.2368015 -32.42682751 131.36861966 -27 134.5 C-24.83984643 135.74609839 -22.67969017 136.99219214 -20.51953125 138.23828125 C-16.12040925 140.77615993 -11.72205679 143.31536583 -7.32421875 145.85546875 C6.09706615 153.60577436 19.53500558 161.32586445 33 169 C33 169.66 33 170.32 33 171 C32.29504395 171.39268066 31.59008789 171.78536133 30.86376953 172.18994141 C27.6165818 173.99996267 24.37078565 175.81246577 21.125 177.625 C20.01640625 178.24246094 18.9078125 178.85992187 17.765625 179.49609375 C16.12207031 180.41455078 16.12207031 180.41455078 14.4453125 181.3515625 C13.35895508 181.95774414 12.27259766 182.56392578 11.15332031 183.18847656 C7.3921065 185.34922343 3.74065641 187.66135852 0.11669922 190.04443359 C-2 191 -2 191 -3.94799805 190.83032227 C-6.50906783 189.79401074 -8.85394599 188.54877573 -11.26171875 187.19140625 C-12.289021 186.61463135 -13.31632324 186.03785645 -14.37475586 185.44360352 C-16.01456421 184.51245728 -16.01456421 184.51245728 -17.6875 183.5625 C-18.81873291 182.9243335 -19.94996582 182.28616699 -21.11547852 181.62866211 C-27.92008382 177.77925501 -34.69085397 173.8776713 -41.41503906 169.88964844 C-47.7269631 166.14691459 -54.07932724 162.47603196 -60.4375 158.8125 C-62.09072266 157.85984253 -62.09072266 157.85984253 -63.77734375 156.88793945 C-66.04285705 155.58281391 -68.30848334 154.27788445 -70.57421875 152.97314453 C-76.19681556 149.73470187 -81.81714673 146.49233425 -87.4375 143.25 C-88.9069104 142.40272339 -88.9069104 142.40272339 -90.40600586 141.53833008 C-92.42784374 140.37217328 -94.43261405 139.17603853 -96.42138672 137.9543457 C-99.1712785 136.34276791 -101.94896695 135.25018427 -104.94189453 134.16088867 C-110.40951324 131.96136083 -115.30385052 129.73371332 -119 125 C-122.2284856 116.06100483 -121.4455872 106.25456643 -121.06237793 96.89727783 C-120.97912154 94.11470583 -121.01560954 91.33875425 -121.05038166 88.55556583 C-121.26304221 66.5603152 -121.26304221 66.5603152 -116.4284668 61.62280273 C-113.01508894 59.49457054 -109.81303452 58.25882793 -106 57 C-103.81344566 55.79542039 -101.65245377 54.54327278 -99.51953125 53.24609375 C-97.28500298 51.97454154 -95.04928614 50.70507618 -92.8125 49.4375 C-90.34182403 48.03234523 -87.87211894 46.62548727 -85.40234375 45.21875 C-84.78224426 44.86582382 -84.16214478 44.51289764 -83.52325439 44.14927673 C-77.29361892 40.60215931 -71.08252085 37.0231638 -64.875 33.4375 C-63.81490723 32.82535645 -62.75481445 32.21321289 -61.66259766 31.58251953 C-58.44148968 29.72209841 -55.22072715 27.86108032 -52 26 C-49.77740609 24.71603791 -47.55474938 23.43218453 -45.33203125 22.1484375 C-44.23093018 21.51236572 -43.1298291 20.87629395 -41.99536133 20.22094727 C-39.81272018 18.96168785 -37.62898523 17.70432211 -35.4440918 16.44897461 C-30.23218574 13.45361256 -25.03742913 10.43544058 -19.875 7.35546875 C-18.91376221 6.78852295 -17.95252441 6.22157715 -16.9621582 5.63745117 C-15.16205154 4.57512689 -13.36844147 3.5016863 -11.58276367 2.4152832 C-10.78588135 1.94823975 -9.98899902 1.48119629 -9.16796875 1 C-8.47985107 0.5875 -7.7917334 0.175 -7.08276367 -0.25 C-4.2982185 -1.25271044 -2.8116581 -0.86989193 0 0 Z " fill="#0065FD" transform="translate(177,32)"/>
</svg>
